<?xml version="1.0" encoding="UTF-8" standalone="no"?>

<svg xmlns="http://www.w3.org/2000/svg" viewBox="0 0 1600 2200">
    <style type="text/css">text {font-family: Arial, sans serif; font-size: 8pt; text-anchor:middle; dominant-baseline:
        middle;}
    </style>
    <defs>
        <marker id="arrow" markerHeight="12" markerWidth="12" orient="auto-start-reverse" refX="20" refY="10"
                viewBox="0 0 20 20">
            <path d="M 0 0 L 20 10 L 0 20 Z" fill="gray"/>
        </marker>
    </defs>
    <rect fill="white" height="100" stroke="black" stroke-width="1" width="200" x="300" y="1550"/>
    <text fill="black" x="400" y="1600">Deliver decision to the consumer</text>
    <line marker-end="url(#arrow)" stroke="gray" x1="400" x2="552" y1="1650" y2="1764"/>
    <circle cx="600" cy="1800" fill="white" r="60" stroke="black" stroke-width="3"/>
    <text fill="black" x="600" y="1800">End</text>
    <rect fill="white" height="100" stroke="black" stroke-width="1" width="200" x="500" y="350"/>
    <text fill="black" x="600" y="400">Enter loan application</text>
    <line marker-end="url(#arrow)" stroke="gray" x1="600" x2="600" y1="450" y2="525"/>
    <rect fill="white" height="100" stroke="black" stroke-width="1" width="200" x="700" y="750"/>
    <text fill="black" x="800" y="800">Finance check</text>
    <line marker-end="url(#arrow)" stroke="gray" x1="800" x2="675" y1="850" y2="1000"/>
    <rect fill="white" height="100" stroke="black" stroke-width="1" width="200" x="700" y="1550"/>
    <text fill="black" x="800" y="1600">Manual review and final decision</text>
    <line marker-end="url(#arrow)" stroke="gray" x1="700" x2="500" y1="1600" y2="1600"/>
    <path d="M600 925 L675 1000 L600 1075 L525 1000 L600 925 Z" fill="white" stroke="black"/>
    <path d="M600 970 L600 1030 M570 1000 L630 1000 Z" stroke="lightgray" stroke-width="10"/>
    <text fill="black" x="600" y="1000">parallelChecksEnd</text>
    <line marker-end="url(#arrow)" stroke="gray" x1="600" x2="600" y1="1075" y2="1150"/>
    <path d="M600 525 L675 600 L600 675 L525 600 L600 525 Z" fill="white" stroke="black"/>
    <path d="M600 570 L600 630 M570 600 L630 600 Z" stroke="lightgray" stroke-width="10"/>
    <text fill="black" x="600" y="600">parallelChecksStart</text>
    <line marker-end="url(#arrow)" stroke="gray" x1="675" x2="800" y1="600" y2="750"/>
    <line marker-end="url(#arrow)" stroke="gray" x1="525" x2="400" y1="600" y2="750"/>
    <rect fill="white" height="100" stroke="black" stroke-width="1" width="200" x="300" y="750"/>
    <text fill="black" x="400" y="800">Person check</text>
    <line marker-end="url(#arrow)" stroke="gray" x1="400" x2="525" y1="850" y2="1000"/>
    <rect fill="white" height="100" stroke="black" stroke-width="1" width="200" x="500" y="1150"/>
    <text fill="black" x="600" y="1200">Aggregate scoring</text>
    <line marker-end="url(#arrow)" stroke="gray" x1="600" x2="600" y1="1250" y2="1325"/>
    <path d="M600 1325 L675 1400 L600 1475 L525 1400 L600 1325 Z" fill="white" stroke="black"/>
    <path d="M625 1375 L575 1425 M575 1375 L625 1425 Z" stroke="lightgray" stroke-width="10"/>
    <text fill="black" x="600" y="1400">Scoring decision</text>
    <line marker-end="url(#arrow)" stroke="gray" x1="525" x2="400" y1="1400" y2="1550"/>
    <text fill="black" x="462" y="1475">scoringResult != 'MANUAL'</text>
    <line marker-end="url(#arrow)" stroke="gray" x1="675" x2="800" y1="1400" y2="1550"/>
    <text fill="black" x="737" y="1475">scoringResult == 'MANUAL'</text>
    <circle cx="600" cy="200" fill="white" r="60" stroke="black" stroke-width="1"/>
    <text fill="black" x="600" y="200">Start</text>
    <line marker-end="url(#arrow)" stroke="gray" x1="600" x2="600" y1="260" y2="350"/>
</svg>
