<?xml version="1.0" encoding="UTF-8" standalone="no"?>

<svg xmlns="http://www.w3.org/2000/svg" viewBox="0 0 1080 1800">
    <style type="text/css">text {font-family: Arial, sans serif; font-size: 8pt; text-anchor:middle; dominant-baseline:
        middle;}
    </style>
    <defs>
        <marker id="arrow" markerHeight="12" markerWidth="12" orient="auto-start-reverse" refX="20" refY="10"
                viewBox="0 0 20 20">
            <path d="M 0 0 L 20 10 L 0 20 Z" fill="gray"/>
        </marker>
    </defs>
    <rect fill="white" height="100" stroke="black" stroke-width="1" width="180" x="270" y="1390"/>
    <text fill="black" x="360" y="1440">Deliver decision to the consumer</text>
    <line marker-end="url(#arrow)" stroke="gray" x1="360" x2="500" y1="1490" y2="1591"/>
    <circle cx="540" cy="1620" fill="white" r="50" stroke="black" stroke-width="3"/>
    <text fill="black" x="540" y="1620">End</text>
    <rect fill="white" height="100" stroke="black" stroke-width="1" width="180" x="450" y="310"/>
    <text fill="black" x="540" y="360">Enter loan application</text>
    <line marker-end="url(#arrow)" stroke="gray" x1="540" x2="540" y1="410" y2="480"/>
    <rect fill="white" height="100" stroke="black" stroke-width="1" width="180" x="630" y="670"/>
    <text fill="black" x="720" y="720">Finance check</text>
    <line marker-end="url(#arrow)" stroke="gray" x1="720" x2="600" y1="770" y2="900"/>
    <rect fill="white" height="100" stroke="black" stroke-width="1" width="180" x="630" y="1390"/>
    <text fill="black" x="720" y="1440">Manual review and final decision</text>
    <line marker-end="url(#arrow)" stroke="gray" x1="630" x2="450" y1="1440" y2="1440"/>
    <path d="M540 840 L600 900 L540 960 L480 900 L540 840 Z" fill="white" stroke="black"/>
    <path d="M540 875 L540 925 M515 900 L565 900 Z" stroke="lightgray" stroke-width="10"/>
    <text fill="black" x="540" y="900">parallelChecksEnd</text>
    <line marker-end="url(#arrow)" stroke="gray" x1="540" x2="540" y1="960" y2="1030"/>
    <path d="M540 480 L600 540 L540 600 L480 540 L540 480 Z" fill="white" stroke="black"/>
    <path d="M540 515 L540 565 M515 540 L565 540 Z" stroke="lightgray" stroke-width="10"/>
    <text fill="black" x="540" y="540">parallelChecksStart</text>
    <line marker-end="url(#arrow)" stroke="gray" x1="600" x2="720" y1="540" y2="670"/>
    <line marker-end="url(#arrow)" stroke="gray" x1="480" x2="360" y1="540" y2="670"/>
    <rect fill="white" height="100" stroke="black" stroke-width="1" width="180" x="270" y="670"/>
    <text fill="black" x="360" y="720">Person check</text>
    <line marker-end="url(#arrow)" stroke="gray" x1="360" x2="480" y1="770" y2="900"/>
    <rect fill="white" height="100" stroke="black" stroke-width="1" width="180" x="450" y="1030"/>
    <text fill="black" x="540" y="1080">Aggregate scoring</text>
    <line marker-end="url(#arrow)" stroke="gray" x1="540" x2="540" y1="1130" y2="1200"/>
    <path d="M540 1200 L600 1260 L540 1320 L480 1260 L540 1200 Z" fill="white" stroke="black"/>
    <path d="M560 1240 L520 1280 M520 1240 L560 1280 Z" stroke="lightgray" stroke-width="10"/>
    <text fill="black" x="540" y="1260">Scoring decision</text>
    <line marker-end="url(#arrow)" stroke="gray" x1="480" x2="360" y1="1260" y2="1390"/>
    <text fill="black" x="420" y="1325">scoringResult != 'MANUAL'</text>
    <line marker-end="url(#arrow)" stroke="gray" x1="600" x2="720" y1="1260" y2="1390"/>
    <text fill="black" x="660" y="1325">scoringResult == 'MANUAL'</text>
    <circle cx="540" cy="180" fill="white" r="50" stroke="black" stroke-width="1"/>
    <text fill="black" x="540" y="180">Start</text>
    <line marker-end="url(#arrow)" stroke="gray" x1="540" x2="540" y1="230" y2="310"/>
</svg>
